<svg width="25" height="25" viewBox="0 0 25 25" fill="none" xmlns="http://www.w3.org/2000/svg">
<g filter="url(#filter0_i_2_96)">
<circle cx="12.5" cy="12.5" r="12.5" fill="#E9E7E7"/>
<circle cx="3" cy="12" r="1" fill="#CCCDCF"/>
<circle cx="7.5" cy="5.5" r="1.5" fill="#CCCDCF"/>
<circle cx="9" cy="19" r="3" fill="#CCCDCF"/>
<circle cx="18" cy="5" r="1" fill="#CCCDCF"/>
<circle cx="18" cy="20" r="1" fill="#CCCDCF"/>
<circle cx="20" cy="14" r="2" fill="#CCCDCF"/>
<rect x="8" y="8" width="3" height="6" rx="1.5" fill="#303F41"/>
<rect x="14" y="8" width="3" height="6" rx="1.5" fill="#303F41"/>
<path d="M11.772 9.60917C11.5623 10.3633 10.5836 10.5585 10.0357 9.99941C8.68005 8.616 7.50035 8.14246 5.81177 8.47423C5.16322 8.60166 4.49728 8.19826 4.42283 7.54152V7.54152C4.40917 7.42099 4.40791 7.29128 4.48613 7.19856C5.18437 6.37092 9.56604 6.87784 11.5665 8.76891C11.7926 8.98271 11.8554 9.30932 11.772 9.60917V9.60917Z" fill="#303F41"/>
<path d="M13.5067 9.60917C13.7165 10.3633 14.6951 10.5585 15.243 9.99941C16.5987 8.616 17.7784 8.14246 19.467 8.47423C20.1155 8.60166 20.7815 8.19826 20.8559 7.54152V7.54152C20.8696 7.42099 20.8708 7.29128 20.7926 7.19856C20.0944 6.37092 15.7127 6.87784 13.7123 8.76891C13.4861 8.98271 13.4234 9.30932 13.5067 9.60917V9.60917Z" fill="#303F41"/>
<path d="M8.60217 16.0678C8.67853 16.0234 8.76529 16 8.85362 16H16.7661C16.8961 16 17.0209 16.0506 17.1142 16.141V16.141C17.4367 16.4537 17.2153 17 16.7661 17H8.85362C8.34295 17 8.16078 16.3246 8.60217 16.0678V16.0678Z" fill="#303F41"/>
</g>
<defs>
<filter id="filter0_i_2_96" x="0" y="0" width="28" height="25" filterUnits="userSpaceOnUse" color-interpolation-filters="sRGB">
<feFlood flood-opacity="0" result="BackgroundImageFix"/>
<feBlend mode="normal" in="SourceGraphic" in2="BackgroundImageFix" result="shape"/>
<feColorMatrix in="SourceAlpha" type="matrix" values="0 0 0 0 0 0 0 0 0 0 0 0 0 0 0 0 0 0 127 0" result="hardAlpha"/>
<feOffset dx="3"/>
<feGaussianBlur stdDeviation="1.5"/>
<feComposite in2="hardAlpha" operator="arithmetic" k2="-1" k3="1"/>
<feColorMatrix type="matrix" values="0 0 0 0 0 0 0 0 0 0 0 0 0 0 0 0 0 0 0.25 0"/>
<feBlend mode="normal" in2="shape" result="effect1_innerShadow_2_96"/>
</filter>
</defs>
</svg>
