<svg width="25" height="25" viewBox="0 0 25 25" fill="none" xmlns="http://www.w3.org/2000/svg">
<g filter="url(#filter0_i_26_2)">
<circle cx="12.5" cy="12.5" r="12.5" fill="#E9E7E7"/>
<circle cx="3" cy="12" r="1" fill="#CCCDCF"/>
<circle cx="7.5" cy="5.5" r="1.5" fill="#CCCDCF"/>
<circle cx="9" cy="19" r="3" fill="#CCCDCF"/>
<circle cx="18" cy="5" r="1" fill="#CCCDCF"/>
<circle cx="18" cy="20" r="1" fill="#CCCDCF"/>
<circle cx="20" cy="14" r="2" fill="#CCCDCF"/>
<rect x="8" y="8" width="3" height="6" rx="1.5" fill="#303F41"/>
<rect x="16" y="8" width="3" height="6" rx="1.5" fill="#303F41"/>
<path d="M15.5 18C14.0714 16 11.9286 16 10.5 18" stroke="#303F41" stroke-linecap="round"/>
<path d="M6 8.75C6 8.33579 6.33579 8 6.75 8H10.25C10.6642 8 11 8.33579 11 8.75V8.75C11 9.16421 10.6642 9.5 10.25 9.5H6.75C6.33579 9.5 6 9.16421 6 8.75V8.75Z" fill="#303F41"/>
<path d="M14 8.75C14 8.33579 14.3358 8 14.75 8H18.25C18.6642 8 19 8.33579 19 8.75V8.75C19 9.16421 18.6642 9.5 18.25 9.5H14.75C14.3358 9.5 14 9.16421 14 8.75V8.75Z" fill="#303F41"/>
</g>
<defs>
<filter id="filter0_i_26_2" x="0" y="0" width="28" height="25" filterUnits="userSpaceOnUse" color-interpolation-filters="sRGB">
<feFlood flood-opacity="0" result="BackgroundImageFix"/>
<feBlend mode="normal" in="SourceGraphic" in2="BackgroundImageFix" result="shape"/>
<feColorMatrix in="SourceAlpha" type="matrix" values="0 0 0 0 0 0 0 0 0 0 0 0 0 0 0 0 0 0 127 0" result="hardAlpha"/>
<feOffset dx="3"/>
<feGaussianBlur stdDeviation="1.5"/>
<feComposite in2="hardAlpha" operator="arithmetic" k2="-1" k3="1"/>
<feColorMatrix type="matrix" values="0 0 0 0 0 0 0 0 0 0 0 0 0 0 0 0 0 0 0.25 0"/>
<feBlend mode="normal" in2="shape" result="effect1_innerShadow_26_2"/>
</filter>
</defs>
</svg>
