<svg width="800" height="800" viewBox="0 0 800 800" fill="none" xmlns="http://www.w3.org/2000/svg">
<path d="M291.233 142.967L733.633 291.367L585.233 733.767L142.833 585.367L291.233 142.967Z" fill="#64B5F6"/>
<path d="M320.633 208.4L669.333 322.067L566 639.067L217.3 525.4L320.633 208.4Z" fill="#1E88E5"/>
<path d="M181.35 96.3L640.083 180.767L555.617 639.5L96.8833 555.033L181.35 96.3Z" fill="#90CAF9"/>
<path d="M220.317 157.4L581.483 221.567L523.15 549.9L161.983 485.733L220.317 157.4Z" fill="#42A5F5"/>
<path d="M66.6666 66.6667H533.333V533.333H66.6666V66.6667Z" fill="#BBDEFB"/>
<path d="M116.667 116.667H483.333V450H116.667V116.667Z" fill="#4CAF50"/>
<path d="M266.667 216.667C266.667 198.333 281.667 183.333 300 183.333C318.333 183.333 333.333 198.333 333.333 216.667C333.333 235 300 283.333 300 283.333C300 283.333 266.667 235 266.667 216.667ZM333.333 350C333.333 368.333 318.333 383.333 300 383.333C281.667 383.333 266.667 368.333 266.667 350C266.667 331.667 300 283.333 300 283.333C300 283.333 333.333 331.667 333.333 350Z" fill="white"/>
<path d="M225 278.333C208.333 268.333 203.333 248.333 213.333 233.333C223.333 216.667 243.333 211.667 258.333 221.667C275 231.667 300 283.333 300 283.333C300 283.333 241.667 288.333 225 278.333ZM375 288.333C391.667 298.333 396.667 318.333 386.667 333.333C376.667 350 356.667 355 341.667 345C325 336.667 300 283.333 300 283.333C300 283.333 358.333 278.333 375 288.333Z" fill="white"/>
<path d="M375 278.333C391.667 268.333 396.667 248.333 386.667 233.333C376.667 216.667 356.667 211.667 341.667 221.667C325 230 300 283.333 300 283.333C300 283.333 358.333 288.333 375 278.333ZM225 288.333C208.333 298.333 203.333 318.333 213.333 333.333C223.333 350 243.333 355 258.333 345C275 335 300 283.333 300 283.333C300 283.333 241.667 278.333 225 288.333Z" fill="white"/>
<path d="M266.667 283.333C266.667 292.174 270.179 300.652 276.43 306.904C282.681 313.155 291.16 316.667 300 316.667C308.841 316.667 317.319 313.155 323.57 306.904C329.822 300.652 333.333 292.174 333.333 283.333C333.333 274.493 329.822 266.014 323.57 259.763C317.319 253.512 308.841 250 300 250C291.16 250 282.681 253.512 276.43 259.763C270.179 266.014 266.667 274.493 266.667 283.333Z" fill="#FFC107"/>
<g filter="url(#filter0_i_68_2)">
<g filter="url(#filter1_i_68_2)">
<circle cx="287" cy="283" r="125" fill="white"/>
</g>
<circle cx="237" cy="213" r="15" fill="#CCCDCF"/>
<circle cx="210.75" cy="279.25" r="11.25" fill="#CCCDCF"/>
<circle cx="257" cy="353" r="30" fill="#CCCDCF"/>
<circle cx="342" cy="208" r="10" fill="#CCCDCF"/>
<circle cx="342" cy="358" r="10" fill="#CCCDCF"/>
<circle cx="362" cy="298" r="20" fill="#CCCDCF"/>
<rect x="242" y="238" width="30" height="60" rx="15" fill="#303F41"/>
<rect x="302" y="238" width="30" height="60" rx="15" fill="#303F41"/>
</g>
<defs>
<filter id="filter0_i_68_2" x="162" y="158" width="253" height="250" filterUnits="userSpaceOnUse" color-interpolation-filters="sRGB">
<feFlood flood-opacity="0" result="BackgroundImageFix"/>
<feBlend mode="normal" in="SourceGraphic" in2="BackgroundImageFix" result="shape"/>
<feColorMatrix in="SourceAlpha" type="matrix" values="0 0 0 0 0 0 0 0 0 0 0 0 0 0 0 0 0 0 127 0" result="hardAlpha"/>
<feOffset dx="3"/>
<feGaussianBlur stdDeviation="1.5"/>
<feComposite in2="hardAlpha" operator="arithmetic" k2="-1" k3="1"/>
<feColorMatrix type="matrix" values="0 0 0 0 0 0 0 0 0 0 0 0 0 0 0 0 0 0 0.25 0"/>
<feBlend mode="normal" in2="shape" result="effect1_innerShadow_68_2"/>
</filter>
<filter id="filter1_i_68_2" x="162" y="158" width="254" height="250" filterUnits="userSpaceOnUse" color-interpolation-filters="sRGB">
<feFlood flood-opacity="0" result="BackgroundImageFix"/>
<feBlend mode="normal" in="SourceGraphic" in2="BackgroundImageFix" result="shape"/>
<feColorMatrix in="SourceAlpha" type="matrix" values="0 0 0 0 0 0 0 0 0 0 0 0 0 0 0 0 0 0 127 0" result="hardAlpha"/>
<feOffset dx="4"/>
<feGaussianBlur stdDeviation="6"/>
<feComposite in2="hardAlpha" operator="arithmetic" k2="-1" k3="1"/>
<feColorMatrix type="matrix" values="0 0 0 0 0.168627 0 0 0 0 0.168627 0 0 0 0 0.168627 0 0 0 0.5 0"/>
<feBlend mode="normal" in2="shape" result="effect1_innerShadow_68_2"/>
</filter>
</defs>
</svg>
