<svg width="25" height="25" viewBox="0 0 25 25" fill="none" xmlns="http://www.w3.org/2000/svg">
<g filter="url(#filter0_i_27_26)">
<circle cx="12.5" cy="12.5" r="12.5" fill="#E9E7E7"/>
<circle cx="3" cy="12" r="1" fill="#CCCDCF"/>
<circle cx="7.5" cy="5.5" r="1.5" fill="#CCCDCF"/>
<circle cx="9" cy="19" r="3" fill="#CCCDCF"/>
<circle cx="18" cy="5" r="1" fill="#CCCDCF"/>
<circle cx="18" cy="20" r="1" fill="#CCCDCF"/>
<circle cx="20" cy="14" r="2" fill="#CCCDCF"/>
<path d="M18.1414 5.30385C18.0633 4.70815 18.4844 4.17482 19.082 4.11262V4.11262C19.6796 4.05042 20.2273 4.48291 20.3053 5.07862L20.5294 6.78851C20.6075 7.38421 20.1864 7.91754 19.5888 7.97974V7.97974C18.9912 8.04193 18.4435 7.60944 18.3654 7.01374L18.1414 5.30385Z" fill="#FF5255"/>
<path d="M21.1429 5.32133C21.6489 5.10515 22.2697 5.32305 22.5295 5.80802V5.80802C22.7893 6.29299 22.5898 6.86139 22.0839 7.07757L19.9859 7.97401C19.48 8.1902 18.8592 7.9723 18.5993 7.48733V7.48733C18.3395 7.00236 18.539 6.43396 19.0449 6.21778L21.1429 5.32133Z" fill="#FF5255"/>
<path d="M11.4622 2.44095C11.2069 1.62216 11.6613 0.743848 12.4771 0.479198C13.293 0.214547 14.1612 0.663774 14.4165 1.48257L15.4379 4.75917C15.6931 5.57797 15.2387 6.45627 14.4229 6.72092C13.6071 6.98557 12.7388 6.53635 12.4836 5.71755L11.4622 2.44095Z" fill="#FF5255"/>
<path d="M15.6201 2.01159C16.3281 1.46398 17.3223 1.61146 17.8409 2.34099C18.3594 3.07053 18.2058 4.10587 17.4978 4.65348L15.1024 6.50639C14.3944 7.054 13.4001 6.90652 12.8816 6.17699C12.3631 5.44745 12.5167 4.41212 13.2246 3.8645L15.6201 2.01159Z" fill="#FF5255"/>
<path d="M3.23253 20.3536C2.55182 19.8815 2.38276 18.9469 2.85491 18.2662C3.32707 17.5855 4.26164 17.4164 4.94235 17.8886L7.40741 19.5984C8.08812 20.0705 8.25718 21.0051 7.78503 21.6858C7.31287 22.3665 6.37829 22.5356 5.69759 22.0634L3.23253 20.3536Z" fill="#FF5255"/>
<path d="M6.16682 17.4431C6.39286 16.6461 7.22219 16.1832 8.01918 16.4093C8.81617 16.6353 9.27903 17.4646 9.05299 18.2616L8.23444 21.1478C8.0084 21.9448 7.17907 22.4077 6.38208 22.1816C5.58509 21.9556 5.12223 21.1262 5.34827 20.3293L6.16682 17.4431Z" fill="#FF5255"/>
<path d="M9.29569 22.6021C8.5801 22.1847 8.33837 21.2662 8.75578 20.5506C9.17318 19.835 10.0917 19.5933 10.8072 20.0107L13.3986 21.5222C14.1142 21.9396 14.3559 22.8581 13.9385 23.5737C13.5211 24.2893 12.6026 24.531 11.8871 24.1136L9.29569 22.6021Z" fill="#FF5255"/>
<path d="M11.9931 19.4707C12.156 18.6585 12.9465 18.1321 13.7588 18.295C14.571 18.458 15.0974 19.2485 14.9345 20.0607L14.3444 23.0021C14.1815 23.8144 13.391 24.3408 12.5787 24.1778C11.7665 24.0149 11.2401 23.2244 11.403 22.4121L11.9931 19.4707Z" fill="#FF5255"/>
<path d="M19 12C17.5714 9.33333 15.4286 9.33333 14 12" stroke="#303F41" stroke-width="1.5" stroke-linecap="round"/>
<path d="M11 12C9.57143 9.33333 7.42857 9.33333 6 12" stroke="#303F41" stroke-width="1.5" stroke-linecap="round"/>
</g>
<defs>
<filter id="filter0_i_27_26" x="0" y="0" width="28" height="25" filterUnits="userSpaceOnUse" color-interpolation-filters="sRGB">
<feFlood flood-opacity="0" result="BackgroundImageFix"/>
<feBlend mode="normal" in="SourceGraphic" in2="BackgroundImageFix" result="shape"/>
<feColorMatrix in="SourceAlpha" type="matrix" values="0 0 0 0 0 0 0 0 0 0 0 0 0 0 0 0 0 0 127 0" result="hardAlpha"/>
<feOffset dx="3"/>
<feGaussianBlur stdDeviation="1.5"/>
<feComposite in2="hardAlpha" operator="arithmetic" k2="-1" k3="1"/>
<feColorMatrix type="matrix" values="0 0 0 0 0 0 0 0 0 0 0 0 0 0 0 0 0 0 0.25 0"/>
<feBlend mode="normal" in2="shape" result="effect1_innerShadow_27_26"/>
</filter>
</defs>
</svg>
