<svg width="25" height="25" viewBox="0 0 25 25" fill="none" xmlns="http://www.w3.org/2000/svg">
<g filter="url(#filter0_i_27_26)">
<circle cx="12.5" cy="12.5" r="12.5" fill="#E9E7E7"/>
<circle cx="3" cy="12" r="1" fill="#CCCDCF"/>
<circle cx="7.5" cy="5.5" r="1.5" fill="#CCCDCF"/>
<circle cx="9" cy="19" r="3" fill="#CCCDCF"/>
<circle cx="18" cy="5" r="1" fill="#CCCDCF"/>
<circle cx="18" cy="20" r="1" fill="#CCCDCF"/>
<circle cx="20" cy="14" r="2" fill="#CCCDCF"/>
<path d="M17.2606 3.58778C17.2609 2.73012 17.9563 2.02705 18.8139 2.01742V2.01742C19.6715 2.0078 20.3665 2.69526 20.3663 3.55292L20.3653 6.98503C20.3651 7.8427 19.6696 8.54577 18.812 8.55539V8.55539C17.9544 8.56502 17.2594 7.87755 17.2596 7.01989L17.2606 3.58778Z" fill="#FF5255"/>
<path d="M21.3577 4.41646C22.1967 4.1046 23.1019 4.54155 23.3795 5.39242V5.39242C23.6572 6.2433 23.2022 7.18589 22.3632 7.49775L19.5246 8.55299C18.6856 8.86486 17.7804 8.42791 17.5028 7.57703V7.57703C17.2251 6.72616 17.6801 5.78357 18.519 5.4717L21.3577 4.41646Z" fill="#FF5255"/>
<path d="M3.39205 21.9893C2.62324 21.6807 2.25016 20.8073 2.55874 20.0385V20.0385C2.86732 19.2697 3.74072 18.8966 4.50953 19.2052L7.29364 20.3226C8.06245 20.6312 8.43553 21.5046 8.12695 22.2734V22.2734C7.81837 23.0422 6.94497 23.4153 6.17616 23.1067L3.39205 21.9893Z" fill="#FF5255"/>
<path d="M5.60392 18.498C5.64666 17.6707 6.35198 17.0346 7.17931 17.0774V17.0774C8.00663 17.1201 8.64266 17.8254 8.59992 18.6528L8.44515 21.6488C8.40241 22.4761 7.69709 23.1121 6.86977 23.0694V23.0694C6.04244 23.0267 5.40641 22.3213 5.44915 21.494L5.60392 18.498Z" fill="#FF5255"/>
<path d="M10 17C11.4286 19 13.5714 19 15 17" stroke="#303F41" stroke-linecap="round"/>
<path d="M19 12C17.5714 9.33333 15.4286 9.33333 14 12" stroke="#303F41" stroke-width="1.5" stroke-linecap="round"/>
<path d="M11 12C9.57143 9.33333 7.42857 9.33333 6 12" stroke="#303F41" stroke-width="1.5" stroke-linecap="round"/>
</g>
<defs>
<filter id="filter0_i_27_26" x="0" y="0" width="28" height="25" filterUnits="userSpaceOnUse" color-interpolation-filters="sRGB">
<feFlood flood-opacity="0" result="BackgroundImageFix"/>
<feBlend mode="normal" in="SourceGraphic" in2="BackgroundImageFix" result="shape"/>
<feColorMatrix in="SourceAlpha" type="matrix" values="0 0 0 0 0 0 0 0 0 0 0 0 0 0 0 0 0 0 127 0" result="hardAlpha"/>
<feOffset dx="3"/>
<feGaussianBlur stdDeviation="1.5"/>
<feComposite in2="hardAlpha" operator="arithmetic" k2="-1" k3="1"/>
<feColorMatrix type="matrix" values="0 0 0 0 0 0 0 0 0 0 0 0 0 0 0 0 0 0 0.25 0"/>
<feBlend mode="normal" in2="shape" result="effect1_innerShadow_27_26"/>
</filter>
</defs>
</svg>
