<svg width="25" height="27" viewBox="0 0 25 27" fill="none" xmlns="http://www.w3.org/2000/svg">
<g filter="url(#filter0_i_27_26)">
<circle cx="12.5" cy="13.5" r="12.5" fill="#E9E7E7"/>
<circle cx="3" cy="13" r="1" fill="#CCCDCF"/>
<circle cx="7.5" cy="6.5" r="1.5" fill="#CCCDCF"/>
<circle cx="9" cy="20" r="3" fill="#CCCDCF"/>
<circle cx="18" cy="6" r="1" fill="#CCCDCF"/>
<circle cx="18" cy="21" r="1" fill="#CCCDCF"/>
<circle cx="20" cy="15" r="2" fill="#CCCDCF"/>
<path d="M18.1664 5.5748C18.0745 4.85795 18.5826 4.21486 19.3013 4.13841V4.13841C20.0199 4.06197 20.677 4.58112 20.769 5.29797L21.0456 7.45499C21.1375 8.17184 20.6294 8.81493 19.9108 8.89138V8.89138C19.1921 8.96782 18.535 8.44867 18.4431 7.73182L18.1664 5.5748Z" fill="#FF5255"/>
<path d="M21.7648 5.63057C22.3816 5.36125 23.1349 5.62612 23.4474 6.22218V6.22218C23.7599 6.81825 23.5133 7.51978 22.8965 7.78911L20.4034 8.87779C19.7866 9.14711 19.0333 8.88224 18.7208 8.28618V8.28618C18.4083 7.69011 18.6549 6.98858 19.2717 6.71925L21.7648 5.63057Z" fill="#FF5255"/>
<path d="M11.4622 2.44095C11.2069 1.62216 11.6613 0.743848 12.4771 0.479198V0.479198C13.293 0.214547 14.1612 0.663774 14.4165 1.48257L15.4379 4.75917C15.6931 5.57797 15.2387 6.45627 14.4229 6.72092V6.72092C13.6071 6.98557 12.7388 6.53635 12.4836 5.71755L11.4622 2.44095Z" fill="#FF5255"/>
<path d="M15.6201 2.01159C16.3281 1.46398 17.3223 1.61146 17.8409 2.34099V2.34099C18.3594 3.07053 18.2058 4.10587 17.4978 4.65348L15.1024 6.50639C14.3944 7.054 13.4001 6.90652 12.8816 6.17699V6.17699C12.3631 5.44745 12.5167 4.41212 13.2246 3.8645L15.6201 2.01159Z" fill="#FF5255"/>
<path d="M3.39205 22.9893C2.62324 22.6807 2.25016 21.8073 2.55874 21.0385C2.86732 20.2697 3.74072 19.8966 4.50953 20.2052L7.29364 21.3226C8.06245 21.6312 8.43553 22.5046 8.12695 23.2734C7.81837 24.0422 6.94497 24.4153 6.17616 24.1067L3.39205 22.9893Z" fill="#FF5255"/>
<path d="M5.60392 19.498C5.64666 18.6707 6.35198 18.0346 7.17931 18.0774C8.00663 18.1201 8.64266 18.8254 8.59992 19.6528L8.44515 22.6488C8.40241 23.4761 7.69709 24.1121 6.86977 24.0694C6.04244 24.0267 5.40641 23.3213 5.44915 22.494L5.60392 19.498Z" fill="#FF5255"/>
<path d="M9.23344 24.3572C8.55223 23.8858 8.38217 22.9514 8.8536 22.2702V22.2702C9.32503 21.5889 10.2594 21.4189 10.9406 21.8903L13.4075 23.5975C14.0887 24.0689 14.2588 25.0033 13.7874 25.6845V25.6845C13.3159 26.3658 12.3815 26.5358 11.7003 26.0644L9.23344 24.3572Z" fill="#FF5255"/>
<path d="M12.1646 21.4435C12.3898 20.6463 13.2186 20.1825 14.0159 20.4077V20.4077C14.8131 20.6329 15.2768 21.4618 15.0517 22.259L14.2362 25.146C14.011 25.9433 13.1822 26.407 12.3849 26.1818V26.1818C11.5877 25.9566 11.124 25.1278 11.3491 24.3306L12.1646 21.4435Z" fill="#FF5255"/>
<path d="M19 13C17.5714 10.3333 15.4286 10.3333 14 13" stroke="#303F41" stroke-width="1.5" stroke-linecap="round"/>
<path d="M11 13C9.57143 10.3333 7.42857 10.3333 6 13" stroke="#303F41" stroke-width="1.5" stroke-linecap="round"/>
</g>
<defs>
<filter id="filter0_i_27_26" x="0" y="0.403259" width="28" height="25.9278" filterUnits="userSpaceOnUse" color-interpolation-filters="sRGB">
<feFlood flood-opacity="0" result="BackgroundImageFix"/>
<feBlend mode="normal" in="SourceGraphic" in2="BackgroundImageFix" result="shape"/>
<feColorMatrix in="SourceAlpha" type="matrix" values="0 0 0 0 0 0 0 0 0 0 0 0 0 0 0 0 0 0 127 0" result="hardAlpha"/>
<feOffset dx="3"/>
<feGaussianBlur stdDeviation="1.5"/>
<feComposite in2="hardAlpha" operator="arithmetic" k2="-1" k3="1"/>
<feColorMatrix type="matrix" values="0 0 0 0 0 0 0 0 0 0 0 0 0 0 0 0 0 0 0.25 0"/>
<feBlend mode="normal" in2="shape" result="effect1_innerShadow_27_26"/>
</filter>
</defs>
</svg>
