<svg width="29" height="35" viewBox="0 0 29 35" fill="none" xmlns="http://www.w3.org/2000/svg">
<g filter="url(#filter0_i_17_2)">
<circle cx="12.5" cy="22.5" r="12.5" fill="#E9E7E7"/>
<circle cx="3" cy="22" r="1" fill="#CCCDCF"/>
<circle cx="7.5" cy="15.5" r="1.5" fill="#CCCDCF"/>
<circle cx="9" cy="29" r="3" fill="#CCCDCF"/>
<circle cx="18" cy="15" r="1" fill="#CCCDCF"/>
<circle cx="18" cy="30" r="1" fill="#CCCDCF"/>
<circle cx="20" cy="24" r="2" fill="#CCCDCF"/>
<rect x="8" y="18" width="3" height="6" rx="1.5" fill="#303F41"/>
<rect x="14" y="18" width="3" height="6" rx="1.5" fill="#303F41"/>
<path d="M14.4962 7.662C14.4962 7.498 14.5162 7.344 14.5562 7.2C14.6002 7.052 14.6722 6.91 14.7722 6.774C14.8722 6.638 15.0102 6.506 15.1862 6.378C15.3782 6.242 15.5102 6.122 15.5822 6.018C15.6582 5.914 15.6962 5.808 15.6962 5.7C15.6962 5.556 15.6322 5.452 15.5042 5.388C15.3802 5.324 15.1782 5.292 14.8982 5.292C14.6942 5.292 14.4862 5.31 14.2742 5.346C14.0622 5.382 13.8402 5.438 13.6082 5.514L13.4462 4.794C13.6782 4.718 13.9302 4.66 14.2022 4.62C14.4742 4.58 14.7462 4.56 15.0182 4.56C16.0582 4.56 16.5782 4.9 16.5782 5.58C16.5782 5.804 16.5222 6.008 16.4102 6.192C16.3022 6.372 16.1142 6.554 15.8462 6.738C15.7262 6.818 15.6282 6.91 15.5522 7.014C15.4802 7.114 15.4282 7.22 15.3962 7.332C15.3642 7.44 15.3442 7.55 15.3362 7.662H14.4962ZM14.9162 9.06C14.7602 9.06 14.6362 9.016 14.5442 8.928C14.4522 8.84 14.4062 8.722 14.4062 8.574C14.4062 8.422 14.4522 8.302 14.5442 8.214C14.6362 8.126 14.7602 8.082 14.9162 8.082C15.0722 8.082 15.1962 8.126 15.2882 8.214C15.3802 8.302 15.4262 8.422 15.4262 8.574C15.4262 8.722 15.3802 8.84 15.2882 8.928C15.1962 9.016 15.0722 9.06 14.9162 9.06Z" fill="#E9E7E7"/>
<path d="M24.5763 11.547C24.5763 11.2463 24.613 10.964 24.6863 10.7C24.767 10.4287 24.899 10.1683 25.0823 9.919C25.2657 9.66967 25.5187 9.42767 25.8413 9.193C26.1933 8.94367 26.4353 8.72367 26.5673 8.533C26.7067 8.34233 26.7763 8.148 26.7763 7.95C26.7763 7.686 26.659 7.49533 26.4243 7.378C26.197 7.26067 25.8267 7.202 25.3133 7.202C24.9393 7.202 24.558 7.235 24.1693 7.301C23.7807 7.367 23.3737 7.46967 22.9483 7.609L22.6513 6.289C23.0767 6.14967 23.5387 6.04333 24.0373 5.97C24.536 5.89667 25.0347 5.86 25.5333 5.86C27.44 5.86 28.3933 6.48333 28.3933 7.73C28.3933 8.14067 28.2907 8.51467 28.0853 8.852C27.8873 9.182 27.5427 9.51567 27.0513 9.853C26.8313 9.99967 26.6517 10.1683 26.5123 10.359C26.3803 10.5423 26.285 10.7367 26.2263 10.942C26.1677 11.14 26.131 11.3417 26.1163 11.547H24.5763ZM25.3463 14.11C25.0603 14.11 24.833 14.0293 24.6643 13.868C24.4957 13.7067 24.4113 13.4903 24.4113 13.219C24.4113 12.9403 24.4957 12.7203 24.6643 12.559C24.833 12.3977 25.0603 12.317 25.3463 12.317C25.6323 12.317 25.8597 12.3977 26.0283 12.559C26.197 12.7203 26.2813 12.9403 26.2813 13.219C26.2813 13.4903 26.197 13.7067 26.0283 13.868C25.8597 14.0293 25.6323 14.11 25.3463 14.11Z" fill="#E9E7E7"/>
<path d="M19.2443 7.993C19.2443 7.747 19.2743 7.516 19.3343 7.3C19.4003 7.078 19.5083 6.865 19.6583 6.661C19.8083 6.457 20.0153 6.259 20.2793 6.067C20.5673 5.863 20.7653 5.683 20.8733 5.527C20.9873 5.371 21.0443 5.212 21.0443 5.05C21.0443 4.834 20.9483 4.678 20.7563 4.582C20.5703 4.486 20.2673 4.438 19.8473 4.438C19.5413 4.438 19.2293 4.465 18.9113 4.519C18.5933 4.573 18.2603 4.657 17.9123 4.771L17.6693 3.691C18.0173 3.577 18.3953 3.49 18.8033 3.43C19.2113 3.37 19.6193 3.34 20.0273 3.34C21.5873 3.34 22.3673 3.85 22.3673 4.87C22.3673 5.206 22.2833 5.512 22.1153 5.788C21.9533 6.058 21.6713 6.331 21.2693 6.607C21.0893 6.727 20.9423 6.865 20.8283 7.021C20.7203 7.171 20.6423 7.33 20.5943 7.498C20.5463 7.66 20.5163 7.825 20.5043 7.993H19.2443ZM19.8743 10.09C19.6403 10.09 19.4543 10.024 19.3163 9.892C19.1783 9.76 19.1093 9.583 19.1093 9.361C19.1093 9.133 19.1783 8.953 19.3163 8.821C19.4543 8.689 19.6403 8.623 19.8743 8.623C20.1083 8.623 20.2943 8.689 20.4323 8.821C20.5703 8.953 20.6393 9.133 20.6393 9.361C20.6393 9.583 20.5703 9.76 20.4323 9.892C20.2943 10.024 20.1083 10.09 19.8743 10.09Z" fill="#E9E7E7"/>
</g>
<defs>
<filter id="filter0_i_17_2" x="0" y="3.34" width="31.3933" height="31.66" filterUnits="userSpaceOnUse" color-interpolation-filters="sRGB">
<feFlood flood-opacity="0" result="BackgroundImageFix"/>
<feBlend mode="normal" in="SourceGraphic" in2="BackgroundImageFix" result="shape"/>
<feColorMatrix in="SourceAlpha" type="matrix" values="0 0 0 0 0 0 0 0 0 0 0 0 0 0 0 0 0 0 127 0" result="hardAlpha"/>
<feOffset dx="3"/>
<feGaussianBlur stdDeviation="1.5"/>
<feComposite in2="hardAlpha" operator="arithmetic" k2="-1" k3="1"/>
<feColorMatrix type="matrix" values="0 0 0 0 0 0 0 0 0 0 0 0 0 0 0 0 0 0 0.25 0"/>
<feBlend mode="normal" in2="shape" result="effect1_innerShadow_17_2"/>
</filter>
</defs>
</svg>
