<svg width="25" height="25" viewBox="0 0 25 25" fill="none" xmlns="http://www.w3.org/2000/svg">
<g filter="url(#filter0_i_5_184)">
<circle cx="12.5" cy="12.5" r="12.5" fill="#E9E7E7"/>
<circle cx="3" cy="12" r="1" fill="#CCCDCF"/>
<circle cx="7.5" cy="5.5" r="1.5" fill="#CCCDCF"/>
<circle cx="9" cy="19" r="3" fill="#CCCDCF"/>
<circle cx="18" cy="5" r="1" fill="#CCCDCF"/>
<circle cx="18" cy="20" r="1" fill="#CCCDCF"/>
<circle cx="20" cy="14" r="2" fill="#CCCDCF"/>
<rect x="11" y="15" width="3" height="3" rx="1.5" fill="#303F41"/>
<path d="M14 10C15.7143 12.6667 18.2857 12.6667 20 10" stroke="#303F41" stroke-width="1.5" stroke-linecap="round"/>
<path d="M5 10C6.71429 12.6667 9.28571 12.6667 11 10" stroke="#303F41" stroke-width="1.5" stroke-linecap="round"/>
<path d="M10.0981 7C9.98145 7 9.88345 6.95333 9.80412 6.86C9.72945 6.76667 9.69212 6.65233 9.69212 6.517C9.69212 6.42833 9.71312 6.349 9.75512 6.279L10.8331 4.592C10.8845 4.51267 10.9265 4.45667 10.9591 4.424C10.9918 4.39133 11.0268 4.368 11.0641 4.354H10.0841C9.77145 4.354 9.61512 4.21167 9.61512 3.927C9.61512 3.64233 9.77145 3.5 10.0841 3.5H11.8131C11.9391 3.5 12.0441 3.54667 12.1281 3.64C12.2121 3.73333 12.2541 3.84767 12.2541 3.983C12.2541 4.07167 12.2331 4.151 12.1911 4.221L11.0501 5.922C10.9661 6.05267 10.8705 6.12733 10.7631 6.146H11.9531C12.2658 6.146 12.4221 6.293 12.4221 6.587C12.4221 6.86233 12.2658 7 11.9531 7H10.0981Z" fill="#777DED"/>
<path d="M13.0846 6C12.9913 6 12.9163 5.96667 12.8596 5.9C12.8029 5.83 12.7746 5.755 12.7746 5.675C12.7746 5.635 12.7813 5.595 12.7946 5.555C12.8079 5.515 12.8379 5.44833 12.8846 5.355C12.9179 5.29167 12.9629 5.21333 13.0196 5.12C13.0763 5.02333 13.1496 4.90167 13.2396 4.755C13.3329 4.60833 13.4463 4.425 13.5796 4.205C13.7163 3.985 13.8779 3.71833 14.0646 3.405C14.1313 3.28833 14.1863 3.21833 14.2296 3.195C14.2729 3.17167 14.2913 3.16 14.2846 3.16H13.0746C12.9913 3.16 12.9213 3.12833 12.8646 3.065C12.8113 2.99833 12.7863 2.91667 12.7896 2.82C12.7963 2.71333 12.8313 2.63333 12.8946 2.58C12.9613 2.52667 13.0446 2.5 13.1446 2.5H14.8346C14.9513 2.5 15.0396 2.53333 15.0996 2.6C15.1596 2.66667 15.1863 2.75 15.1796 2.85C15.1796 2.89333 15.1546 2.95833 15.1046 3.045C15.0546 3.13167 14.9863 3.24833 14.8996 3.395L13.8846 5.06C13.8513 5.11333 13.8129 5.15833 13.7696 5.195C13.7263 5.23167 13.6896 5.26 13.6596 5.28C13.6296 5.29667 13.6163 5.305 13.6196 5.305H14.9596C15.0463 5.305 15.1163 5.34 15.1696 5.41C15.2229 5.47667 15.2479 5.56167 15.2446 5.665C15.2413 5.765 15.2113 5.84667 15.1546 5.91C15.0979 5.97 15.0246 6 14.9346 6H13.0846Z" fill="#777DED"/>
<path d="M16.2184 8C16.0878 8 15.9828 7.95333 15.9034 7.86C15.8241 7.762 15.7844 7.657 15.7844 7.545C15.7844 7.489 15.7938 7.433 15.8124 7.377C15.8311 7.321 15.8731 7.22767 15.9384 7.097C15.9851 7.00833 16.0481 6.89867 16.1274 6.768C16.2068 6.63267 16.3094 6.46233 16.4354 6.257C16.5661 6.05167 16.7248 5.795 16.9114 5.487C17.1028 5.179 17.3291 4.80567 17.5904 4.367C17.6838 4.20367 17.7608 4.10567 17.8214 4.073C17.8821 4.04033 17.9078 4.024 17.8984 4.024H16.2044C16.0878 4.024 15.9898 3.97967 15.9104 3.891C15.8358 3.79767 15.8008 3.68333 15.8054 3.548C15.8148 3.39867 15.8638 3.28667 15.9524 3.212C16.0458 3.13733 16.1624 3.1 16.3024 3.1H18.6684C18.8318 3.1 18.9554 3.14667 19.0394 3.24C19.1234 3.33333 19.1608 3.45 19.1514 3.59C19.1514 3.65067 19.1164 3.74167 19.0464 3.863C18.9764 3.98433 18.8808 4.14767 18.7594 4.353L17.3384 6.684C17.2918 6.75867 17.2381 6.82167 17.1774 6.873C17.1168 6.92433 17.0654 6.964 17.0234 6.992C16.9814 7.01533 16.9628 7.027 16.9674 7.027H18.8434C18.9648 7.027 19.0628 7.076 19.1374 7.174C19.2121 7.26733 19.2471 7.38633 19.2424 7.531C19.2378 7.671 19.1958 7.78533 19.1164 7.874C19.0371 7.958 18.9344 8 18.8084 8H16.2184Z" fill="#777DED"/>
</g>
<defs>
<filter id="filter0_i_5_184" x="0" y="0" width="28" height="25" filterUnits="userSpaceOnUse" color-interpolation-filters="sRGB">
<feFlood flood-opacity="0" result="BackgroundImageFix"/>
<feBlend mode="normal" in="SourceGraphic" in2="BackgroundImageFix" result="shape"/>
<feColorMatrix in="SourceAlpha" type="matrix" values="0 0 0 0 0 0 0 0 0 0 0 0 0 0 0 0 0 0 127 0" result="hardAlpha"/>
<feOffset dx="3"/>
<feGaussianBlur stdDeviation="1.5"/>
<feComposite in2="hardAlpha" operator="arithmetic" k2="-1" k3="1"/>
<feColorMatrix type="matrix" values="0 0 0 0 0 0 0 0 0 0 0 0 0 0 0 0 0 0 0.25 0"/>
<feBlend mode="normal" in2="shape" result="effect1_innerShadow_5_184"/>
</filter>
</defs>
</svg>
