<svg width="25" height="27" viewBox="0 0 25 27" fill="none" xmlns="http://www.w3.org/2000/svg">
<g filter="url(#filter0_i_5_184)">
<circle cx="12.5" cy="14.5" r="12.5" fill="#E9E7E7"/>
<circle cx="3" cy="14" r="1" fill="#CCCDCF"/>
<circle cx="7.5" cy="7.5" r="1.5" fill="#CCCDCF"/>
<circle cx="9" cy="21" r="3" fill="#CCCDCF"/>
<circle cx="18" cy="7" r="1" fill="#CCCDCF"/>
<circle cx="18" cy="22" r="1" fill="#CCCDCF"/>
<circle cx="20" cy="16" r="2" fill="#CCCDCF"/>
<rect x="11" y="17" width="3" height="3" rx="1.5" fill="#303F41"/>
<path d="M14 12C15.7143 14.6667 18.2857 14.6667 20 12" stroke="#303F41" stroke-linecap="round"/>
<path d="M5 12C6.71429 14.6667 9.28571 14.6667 11 12" stroke="#303F41" stroke-linecap="round"/>
<path d="M11.0981 9C10.9815 9 10.8835 8.95333 10.8041 8.86C10.7295 8.76667 10.6921 8.65233 10.6921 8.517C10.6921 8.42833 10.7131 8.349 10.7551 8.279L11.8331 6.592C11.8845 6.51267 11.9265 6.45667 11.9591 6.424C11.9918 6.39133 12.0268 6.368 12.0641 6.354H11.0841C10.7715 6.354 10.6151 6.21167 10.6151 5.927C10.6151 5.64233 10.7715 5.5 11.0841 5.5H12.8131C12.9391 5.5 13.0441 5.54667 13.1281 5.64C13.2121 5.73333 13.2541 5.84767 13.2541 5.983C13.2541 6.07167 13.2331 6.151 13.1911 6.221L12.0501 7.922C11.9661 8.05267 11.8705 8.12733 11.7631 8.146H12.9531C13.2658 8.146 13.4221 8.293 13.4221 8.587C13.4221 8.86233 13.2658 9 12.9531 9H11.0981Z" fill="#777DED"/>
<path d="M14.9693 8C14.8359 8 14.7239 7.94667 14.6333 7.84C14.5479 7.73333 14.5053 7.60267 14.5053 7.448C14.5053 7.34667 14.5293 7.256 14.5773 7.176L15.8093 5.248C15.8679 5.15733 15.9159 5.09333 15.9533 5.056C15.9906 5.01867 16.0306 4.992 16.0733 4.976H14.9533C14.5959 4.976 14.4173 4.81333 14.4173 4.488C14.4173 4.16267 14.5959 4 14.9533 4H16.9293C17.0733 4 17.1933 4.05333 17.2893 4.16C17.3853 4.26667 17.4333 4.39733 17.4333 4.552C17.4333 4.65333 17.4093 4.744 17.3613 4.824L16.0573 6.768C15.9613 6.91733 15.8519 7.00267 15.7293 7.024H17.0893C17.4466 7.024 17.6253 7.192 17.6253 7.528C17.6253 7.84267 17.4466 8 17.0893 8H14.9693Z" fill="#777DED"/>
<path d="M18.3404 10C18.1904 10 18.0644 9.94 17.9624 9.82C17.8664 9.7 17.8184 9.553 17.8184 9.379C17.8184 9.265 17.8454 9.163 17.8994 9.073L19.2854 6.904C19.3514 6.802 19.4054 6.73 19.4474 6.688C19.4894 6.646 19.5344 6.616 19.5824 6.598H18.3224C17.9204 6.598 17.7194 6.415 17.7194 6.049C17.7194 5.683 17.9204 5.5 18.3224 5.5H20.5454C20.7074 5.5 20.8424 5.56 20.9504 5.68C21.0584 5.8 21.1124 5.947 21.1124 6.121C21.1124 6.235 21.0854 6.337 21.0314 6.427L19.5644 8.614C19.4564 8.782 19.3334 8.878 19.1954 8.902H20.7254C21.1274 8.902 21.3284 9.091 21.3284 9.469C21.3284 9.823 21.1274 10 20.7254 10H18.3404Z" fill="#777DED"/>
</g>
<defs>
<filter id="filter0_i_5_184" x="0" y="2" width="28" height="25" filterUnits="userSpaceOnUse" color-interpolation-filters="sRGB">
<feFlood flood-opacity="0" result="BackgroundImageFix"/>
<feBlend mode="normal" in="SourceGraphic" in2="BackgroundImageFix" result="shape"/>
<feColorMatrix in="SourceAlpha" type="matrix" values="0 0 0 0 0 0 0 0 0 0 0 0 0 0 0 0 0 0 127 0" result="hardAlpha"/>
<feOffset dx="3"/>
<feGaussianBlur stdDeviation="1.5"/>
<feComposite in2="hardAlpha" operator="arithmetic" k2="-1" k3="1"/>
<feColorMatrix type="matrix" values="0 0 0 0 0 0 0 0 0 0 0 0 0 0 0 0 0 0 0.25 0"/>
<feBlend mode="normal" in2="shape" result="effect1_innerShadow_5_184"/>
</filter>
</defs>
</svg>
